<?xml version="1.0" encoding="UTF-8"?>
<svg width="40px" height="41px" viewBox="0 0 40 41" version="1.1" xmlns="http://www.w3.org/2000/svg" xmlns:xlink="http://www.w3.org/1999/xlink">
    <title>icon-school-executive-leadership</title>
    <g id="Enterprise-Overview-V4" stroke="none" stroke-width="1" fill="none" fill-rule="evenodd">
        <g id="Enterprise-Overview-V4c-1" transform="translate(-149.000000, -4109.000000)">
            <g id="Udacity's-digital-competency-platform" transform="translate(129.000000, 3837.000000)">
                <g id="Executive-Leadership" transform="translate(0.000000, 258.000000)">
                    <g id="icon-school-executive-leadership" transform="translate(20.000000, 15.000000)">
                        <polygon id="Path" fill="#2042FF" fill-rule="nonzero" points="20 13.68 16.56 14.96 16.64 11.28 14.4 8.32 17.92 7.28 20 4.24 22.08 7.28 25.6 8.32 23.36 11.28 23.44 14.96"></polygon>
                        <circle id="Oval" stroke="#0B0B0B" stroke-width="0.8" stroke-linecap="round" cx="20" cy="9.6" r="9.6"></circle>
                        <circle id="Oval" fill="#3F7DFF" fill-rule="nonzero" cx="4.8" cy="35.2" r="4.8"></circle>
                        <circle id="Oval" fill="#BEE807" fill-rule="nonzero" cx="20" cy="35.2" r="4.8"></circle>
                        <circle id="Oval" fill="#00C5A1" fill-rule="nonzero" cx="35.2" cy="35.2" r="4.8"></circle>
                        <line x1="20" y1="19.2" x2="20" y2="30.4" id="Path" stroke="#0B0B0B" stroke-width="0.8" stroke-linecap="round"></line>
                        <path d="M4.8,30.4 L4.8,28 C4.8,26.2326888 6.2326888,24.8 8,24.8 L32,24.8 C33.7673112,24.8 35.2,26.2326888 35.2,28 L35.2,30.4" id="Path" stroke="#0B0B0B" stroke-width="0.8" stroke-linecap="round"></path>
                    </g>
                </g>
            </g>
        </g>
    </g>
</svg>