<?xml version="1.0" encoding="UTF-8"?>
<svg width="35px" height="36px" viewBox="0 0 35 36" version="1.1" xmlns="http://www.w3.org/2000/svg" xmlns:xlink="http://www.w3.org/1999/xlink">
    <title>icon-individuals</title>
    <g id="Designs" stroke="none" stroke-width="1" fill="none" fill-rule="evenodd">
        <g id="Homepage-Refresh-Design-1" transform="translate(-976.000000, -879.000000)">
            <g id="Our-proven-results" transform="translate(130.000000, 740.000000)">
                <g id="For-individuals" transform="translate(806.000000, 98.000000)">
                    <g id="icon-individuals" transform="translate(40.000000, 42.000000)">
                        <path d="M10.068,7.7209 L5.098,7.7209 C2.282,7.7209 0,10.0039 0,12.8189 L0,15.1669 L15.166,15.1669 L15.166,12.8189 C15.166,10.0039 12.884,7.7209 10.068,7.7209" id="Fill-1" fill="#BEE907"></path>
                        <path d="M11.2126,3.63 C11.2126,5.635 9.5876,7.26 7.5826,7.26 C5.5786,7.26 3.9536,5.635 3.9536,3.63 C3.9536,1.625 5.5786,0 7.5826,0 C9.5876,0 11.2126,1.625 11.2126,3.63 Z" id="Stroke-3" stroke="#0B0B0B" stroke-linecap="round" stroke-linejoin="round"></path>
                        <path d="M29.9013,7.7209 L24.9313,7.7209 C22.1153,7.7209 19.8333,10.0039 19.8333,12.8189 L19.8333,15.1669 L34.9993,15.1669 L34.9993,12.8189 C34.9993,10.0039 32.7173,7.7209 29.9013,7.7209" id="Fill-5" fill="#17C5A1"></path>
                        <path d="M31.0459,3.63 C31.0459,5.635 29.4209,7.26 27.4159,7.26 C25.4119,7.26 23.7869,5.635 23.7869,3.63 C23.7869,1.625 25.4119,0 27.4159,0 C29.4209,0 31.0459,1.625 31.0459,3.63 Z" id="Stroke-7" stroke="#0B0B0B" stroke-linecap="round" stroke-linejoin="round"></path>
                        <path d="M10.068,27.5542 L5.098,27.5542 C2.282,27.5542 0,29.8372 0,32.6522 L0,35.0002 L15.166,35.0002 L15.166,32.6522 C15.166,29.8372 12.884,27.5542 10.068,27.5542" id="Fill-9" fill="#9E62FF"></path>
                        <path d="M11.2126,23.4634 C11.2126,25.4684 9.5876,27.0934 7.5826,27.0934 C5.5786,27.0934 3.9536,25.4684 3.9536,23.4634 C3.9536,21.4584 5.5786,19.8334 7.5826,19.8334 C9.5876,19.8334 11.2126,21.4584 11.2126,23.4634 Z" id="Stroke-11" stroke="#0B0B0B" stroke-linecap="round" stroke-linejoin="round"></path>
                        <path d="M29.9013,27.5542 L24.9313,27.5542 C22.1153,27.5542 19.8333,29.8372 19.8333,32.6522 L19.8333,35.0002 L34.9993,35.0002 L34.9993,32.6522 C34.9993,29.8372 32.7173,27.5542 29.9013,27.5542" id="Fill-13" fill="#3D7AFF"></path>
                        <path d="M31.0459,23.4634 C31.0459,25.4684 29.4209,27.0934 27.4159,27.0934 C25.4119,27.0934 23.7869,25.4684 23.7869,23.4634 C23.7869,21.4584 25.4119,19.8334 27.4159,19.8334 C29.4209,19.8334 31.0459,21.4584 31.0459,23.4634 Z" id="Stroke-15" stroke="#0B0B0B" stroke-linecap="round" stroke-linejoin="round"></path>
                    </g>
                </g>
            </g>
        </g>
    </g>
</svg>