<?xml version="1.0" encoding="UTF-8"?>
<svg width="40px" height="41px" viewBox="0 0 40 41" version="1.1" xmlns="http://www.w3.org/2000/svg" xmlns:xlink="http://www.w3.org/1999/xlink">
    <title>icon-school-cybersecurity</title>
    <g id="Enterprise-Overview-V4" stroke="none" stroke-width="1" fill="none" fill-rule="evenodd">
        <g id="Enterprise-Overview-V4c-1" transform="translate(-404.000000, -4372.000000)">
            <g id="Udacity's-digital-competency-platform" transform="translate(129.000000, 3837.000000)">
                <g id="Cybersecurity" transform="translate(255.000000, 521.000000)">
                    <g id="icon-school-cybersecurity" transform="translate(20.000000, 15.000000)">
                        <rect id="Rectangle" fill="#2042FF" fill-rule="nonzero" x="7.2" y="14.4" width="25.6" height="25.6" rx="3.2"></rect>
                        <path d="M20,19.2 C20,19.2 16.64,21.84 13.76,21.84 L13.76,28.64 C13.7154299,29.9356616 14.2774552,31.1780332 15.28,32 L19.44,34.8 L20,35.2 L20.64,34.8 L24.8,32 C25.8025448,31.1780332 26.3645701,29.9356616 26.32,28.64 L26.32,21.84 C23.44,21.84 20,19.2 20,19.2 Z" id="Path" fill="#BEE807" fill-rule="nonzero"></path>
                        <polyline id="Path" stroke="#0B0B0B" stroke-width="0.8" stroke-linecap="round" points="17.28 26.8 19.52 29.04 23.12 25.44"></polyline>
                        <path d="M26.96,14.4 L26.96,6.24 C26.96,4.5850491 26.3025733,2.99788069 25.1323463,1.82765369 C23.9621193,0.657426684 22.3749509,0 20.72,0 L19.28,0 C15.8337432,0 13.04,2.79374316 13.04,6.24 L13.04,14.4" id="Path" stroke="#0B0B0B" stroke-width="0.8" stroke-linecap="round"></path>
                        <path d="M7.2,23.52 L2.4,23.52 C2.18086804,23.5460643 1.96188535,23.4701985 1.80584343,23.3141566 C1.64980152,23.1581147 1.57393574,22.939132 1.6,22.72 L1.6,17.12" id="Path" stroke="#0B0B0B" stroke-width="0.8" stroke-linecap="round" stroke-linejoin="round"></path>
                        <path d="M7.2,30.88 L2.4,30.88 C2.18086804,30.8539357 1.96188535,30.9298015 1.80584343,31.0858434 C1.64980152,31.2418853 1.57393574,31.460868 1.6,31.68 L1.6,37.28" id="Path" stroke="#0B0B0B" stroke-width="0.8" stroke-linecap="round" stroke-linejoin="round"></path>
                        <line x1="7.2" y1="27.2" x2="2.56" y2="27.2" id="Path" stroke="#0B0B0B" stroke-width="0.8" stroke-linecap="round" stroke-linejoin="round"></line>
                        <circle id="Oval" fill="#3F7DFF" fill-rule="nonzero" cx="1.6" cy="16.16" r="1.6"></circle>
                        <circle id="Oval" fill="#3F7DFF" fill-rule="nonzero" cx="1.6" cy="27.2" r="1.6"></circle>
                        <circle id="Oval" fill="#3F7DFF" fill-rule="nonzero" cx="1.6" cy="38.24" r="1.6"></circle>
                        <path d="M32.8,23.52 L37.6,23.52 C37.819132,23.5460643 38.0381147,23.4701985 38.1941566,23.3141566 C38.3501985,23.1581147 38.4260643,22.939132 38.4,22.72 L38.4,17.12" id="Path" stroke="#0B0B0B" stroke-width="0.8" stroke-linecap="round" stroke-linejoin="round"></path>
                        <path d="M32.8,30.88 L37.6,30.88 C37.819132,30.8539357 38.0381147,30.9298015 38.1941566,31.0858434 C38.3501985,31.2418853 38.4260643,31.460868 38.4,31.68 L38.4,37.28" id="Path" stroke="#0B0B0B" stroke-width="0.8" stroke-linecap="round" stroke-linejoin="round"></path>
                        <line x1="32.8" y1="27.2" x2="37.36" y2="27.2" id="Path" stroke="#0B0B0B" stroke-width="0.8" stroke-linecap="round" stroke-linejoin="round"></line>
                        <circle id="Oval" fill="#3F7DFF" fill-rule="nonzero" cx="38.4" cy="16.16" r="1.6"></circle>
                        <circle id="Oval" fill="#3F7DFF" fill-rule="nonzero" cx="38.4" cy="27.2" r="1.6"></circle>
                        <circle id="Oval" fill="#3F7DFF" fill-rule="nonzero" cx="38.4" cy="38.24" r="1.6"></circle>
                    </g>
                </g>
            </g>
        </g>
    </g>
</svg>