<?xml version="1.0" encoding="UTF-8"?>
<svg width="140px" height="20px" viewBox="0 0 140 20" version="1.1" xmlns="http://www.w3.org/2000/svg" xmlns:xlink="http://www.w3.org/1999/xlink">
    <title>logo-forrester</title>
    <g id="Designs" stroke="none" stroke-width="1" fill="none" fill-rule="evenodd">
        <g id="Homepage-Refresh-Design-1" transform="translate(-167.000000, -971.000000)" fill="#0B0B0B" fill-rule="nonzero">
            <g id="Our-proven-results" transform="translate(130.000000, 740.000000)">
                <g id="For-enterprise" transform="translate(0.000000, 98.000000)">
                    <path d="M39.6906386,136.232433 C39.6906386,134.935081 39.6906386,134.033531 38.1283323,133.978559 C37.466522,133.923586 37.0433974,133.890603 37.0433974,133.439828 C37.0433974,132.989053 37.4556727,133.000024 37.6726596,133.000024 C37.9604529,133.039226 38.2502672,133.061253 38.5406076,133.066014 C39.3543087,133.066014 40.884067,133.131982 43.9652821,133.131982 L44.33416,133.131982 C47.5889647,133.131982 49.2055177,133.131982 50.0192188,133.066014 C50.3206002,133.067186 50.6216333,133.045134 50.9197148,133.000024 C51.4187849,133.000024 51.4513329,133.153971 51.4513329,133.571762 L51.4513329,136.925088 C51.4513329,137.024038 51.4513329,137.529786 51.1150031,137.529786 C50.7786733,137.529786 50.5508369,137.046027 50.4857409,136.892104 C49.7371358,135.154971 49.2380657,134.110493 44.6487911,134.110493 C43.5638562,134.110493 43.0539368,134.17646 43.0539368,135.660719 L43.0539368,139.860622 C43.0539368,141.575766 43.1515809,141.608749 43.5530068,141.663722 C44.1879785,141.718642 44.8253039,141.740659 45.4624923,141.729689 C47.9903906,141.729689 48.3375697,141.004051 48.8366398,139.387858 C48.8908865,139.134984 49.0210787,138.88211 49.3357099,138.88211 C49.650341,138.88211 49.7045877,139.102001 49.7045877,139.420841 C49.7045877,139.739682 49.6069436,142.015546 49.6069436,142.48831 C49.6069436,142.774167 49.6069436,143.312898 49.6720397,144.038536 L49.8022319,145.522795 C49.8022319,145.742685 49.8022319,146.127493 49.4225046,146.127493 C49.1558739,146.106618 48.9440341,145.891944 48.9234346,145.621745 C48.8583385,145.467822 48.6413515,144.577267 48.5871048,144.423344 C48.1422815,142.7082 46.1460012,142.7082 45.3323001,142.7082 C43.0213887,142.7082 43.0213887,142.7082 43.0213887,144.192459 L43.0213887,149.579769 C43.0213887,150.811154 43.0213887,151.778671 44.4643521,151.855633 C45.3648481,151.855633 45.8096714,151.910605 45.8096714,152.394364 C45.8096714,152.878122 45.3973962,152.834144 45.1478611,152.834144 C44.0629262,152.834144 42.4355239,152.70221 41.3722877,152.70221 C40.3090515,152.70221 38.6816491,152.834144 37.6618103,152.834144 C37.4122753,152.834144 37,152.834144 37,152.36138 C37,151.888616 37.466522,151.888616 38.0849349,151.855633 C39.6363918,151.723699 39.6363918,150.89911 39.6363918,149.601758 L39.6363918,136.232433 M60.8685679,152.933171 C56.2250465,152.933171 51.7768134,149.425846 51.7768134,144.280415 C51.7768134,139.431836 55.7910725,135.715691 60.9553627,135.715691 C65.9243645,135.715691 69.949473,139.398852 69.949473,144.038536 C69.8024538,149.007844 65.774429,152.953211 60.8685679,152.933171 M60.6298822,136.441329 C56.9085555,136.441329 54.966522,139.915594 54.966522,143.752679 C54.966522,148.150483 57.4944203,152.26243 61.0855549,152.26243 C64.6766894,152.26243 66.7489151,148.084516 66.7489151,144.181464 C66.7489151,140.971067 64.8611283,136.485307 60.6298822,136.485307 M72.0108493,138.684209 C72.0108493,137.584758 72.0108493,136.848126 70.7089275,136.771164 C70.1230626,136.771164 69.7541847,136.716192 69.7541847,136.342379 C69.7541847,135.968565 69.8626782,135.957571 70.7414755,135.957571 C71.0018599,135.957571 72.3037818,136.067516 72.6292622,136.067516 C73.3453193,136.067516 76.8822071,135.957571 77.6850589,135.957571 C82.382827,135.957571 82.7842529,139.255924 82.7842529,140.190457 C82.7691764,142.275436 81.1890291,144.0054 79.1388717,144.181464 C79.7187771,144.525612 80.1691814,145.055536 80.4190949,145.687712 L83.0012399,150.327396 C83.532858,151.272924 83.9017359,151.943589 84.650341,152.053534 C85.3989461,152.163479 85.7352759,152.185468 85.7352759,152.537292 C85.7352759,152.889117 85.4748915,152.856133 85.2904526,152.856133 C84.9432734,152.856133 83.2073776,152.746188 82.816801,152.746188 C82.599814,152.746188 81.6125232,152.856133 81.3738376,152.856133 C80.8964662,152.856133 80.7879727,152.614254 80.4950403,152.053534 L77.2402356,145.907603 C76.6543707,144.742184 76.5241785,144.643234 75.3199008,144.643234 C74.8750775,144.643234 74.8208308,144.797157 74.8208308,145.258926 L74.8208308,150.107506 C74.8208308,151.206957 74.8208308,151.965578 76.1444513,152.053534 C76.7303162,152.053534 77.1100434,152.053534 77.1100434,152.504309 C77.1100434,152.955084 76.7628642,152.856133 76.5458772,152.856133 C76.0468072,152.856133 73.4646621,152.746188 73.3561686,152.746188 C72.900496,152.746188 70.7523249,152.856133 70.2749535,152.856133 C70.0579665,152.856133 69.7107874,152.856133 69.7107874,152.48232 C69.7107874,152.108506 70.1122133,152.075523 70.6655301,152.053534 C71.967452,151.943589 71.967452,151.23994 71.967452,150.107506 L72.0108493,138.684209 Z M74.8642281,142.939085 C74.8642281,143.884613 74.8642281,143.939585 76.1878487,143.939585 C77.1534408,143.939585 79.7789833,143.939585 79.7789833,140.564271 C79.8575568,139.544571 79.5011615,138.539633 78.8000334,137.803899 C78.0989053,137.068165 77.120268,136.672176 76.1119033,136.716192 C74.8859268,136.716192 74.8642281,137.364868 74.8642281,138.409347 L74.8642281,142.82914 L74.8642281,142.939085 Z M89.1094234,138.684209 C89.1094234,137.584758 89.1094234,136.848126 87.8075015,136.771164 C87.2216367,136.771164 86.8419095,136.716192 86.8419095,136.342379 C86.8419095,135.968565 86.9612523,135.957571 87.8292002,135.957571 C88.100434,135.957571 89.4023559,136.067516 89.716987,136.067516 C90.4438934,136.067516 93.9807812,135.957571 94.7727836,135.957571 C99.4814011,135.957571 99.882827,139.255924 99.882827,140.190457 C99.8626761,142.273396 98.2852046,144.000431 96.2374458,144.181464 C96.5846249,144.401355 96.899256,144.555278 97.5176689,145.687712 L100.088965,150.327396 C100.620583,151.272924 101.00031,151.943589 101.738066,152.053534 C102.475821,152.163479 102.823001,152.185468 102.823001,152.537292 C102.823001,152.889117 102.551767,152.856133 102.367328,152.856133 C102.020149,152.856133 100.295102,152.746188 99.8936764,152.746188 C99.6875387,152.746188 98.700248,152.856133 98.4615623,152.856133 C97.9841909,152.856133 97.8756975,152.614254 97.582765,152.053534 L94.3279603,145.907603 C93.7420955,144.742184 93.6119033,144.643234 92.4184749,144.643234 C91.9628022,144.643234 91.9085555,144.797157 91.9085555,145.258926 L91.9085555,150.107506 C91.9085555,151.206957 91.9085555,151.965578 93.2430254,152.053534 C93.8288903,152.053534 94.1977681,152.053534 94.1977681,152.504309 C94.1977681,152.955084 93.850589,152.856133 93.6444513,152.856133 C93.1345319,152.856133 90.5523869,152.746188 90.3896466,152.746188 C89.9448233,152.746188 87.7858029,152.856133 87.3084315,152.856133 C87.0914445,152.856133 86.7442653,152.856133 86.7442653,152.48232 C86.7442653,152.108506 87.1456913,152.075523 87.7098574,152.053534 C89.0117793,151.943589 89.0117793,151.23994 89.0117793,150.107506 L89.1094234,138.684209 Z M91.9519529,142.939085 C91.9519529,143.884613 91.9519529,143.939585 93.2864228,143.939585 C94.2411655,143.939585 96.8775573,143.939585 96.8775573,140.564271 C96.9561308,139.544571 96.5997356,138.539633 95.8986075,137.803899 C95.1974793,137.068165 94.2188421,136.672176 93.2104774,136.716192 C91.9845009,136.716192 91.9519529,137.364868 91.9519529,138.409347 L91.9519529,142.82914 L91.9519529,142.939085 Z M105.936764,138.706198 C105.936764,137.606747 105.936764,136.88111 104.602294,136.793153 C104.027278,136.793153 103.647551,136.738181 103.647551,136.342379 C103.647551,135.946576 103.99473,135.95754 104.179169,135.95754 C104.401672,135.993299 104.626552,136.011677 104.851829,136.012543 C105.426844,136.012543 106.576875,136.067516 108.83354,136.067516 L110.113763,136.067516 C112.858648,136.067516 114.203968,136.067516 114.930874,136.012543 C115.19568,136.009211 115.460095,135.990858 115.722877,135.95754 C116.048357,135.95754 116.048357,136.177461 116.048357,136.793153 L116.048357,139.277913 C116.048357,139.409847 116.048357,139.728688 115.777123,139.728688 C115.50589,139.728688 115.429944,139.629737 114.952573,138.629237 C114.637942,137.925588 113.99783,136.903099 110.222257,136.903099 C108.887787,136.903099 108.779293,137.090005 108.779293,138.44233 L108.779293,142.345381 C108.779293,143.213948 108.779293,143.444832 110.33075,143.444832 C113.281773,143.444832 113.520459,142.851129 113.99783,141.432837 C114.128022,141.081013 114.258215,141.02604 114.388407,141.02604 C114.518599,141.02604 114.681339,141.103002 114.681339,141.399853 C114.681339,141.696705 114.4969,144.555278 114.4969,145.148981 C114.4969,145.335888 114.583695,146.248432 114.583695,146.490312 C114.583695,146.732191 114.583695,147.029043 114.258215,147.029043 C113.932734,147.029043 113.889337,146.897109 113.759144,146.380367 C113.194978,144.313399 112.446373,144.280415 110.265654,144.280415 C108.99628,144.280415 108.779293,144.280415 108.779293,145.094009 L108.779293,149.722698 C108.779293,151.646737 109.343459,151.9216 111.578425,151.9216 C113.258601,152.135165 114.877737,151.20523 115.560136,149.634742 C116.048357,148.689214 116.091754,148.535291 116.33044,148.535291 C116.569126,148.535291 116.655921,148.788164 116.655921,148.942087 C116.655921,149.293912 116.362988,151.02005 116.276193,152.02055 C116.276193,152.526298 115.99411,152.82315 115.191259,152.82315 C113.845939,152.82315 111.936454,152.82315 110.439244,152.768177 L107.509919,152.713205 L107.195288,152.713205 C106.110353,152.713205 105.437694,152.713205 105.025418,152.768177 C104.613143,152.82315 104.385307,152.82315 104.190019,152.82315 C103.99473,152.82315 103.636702,152.82315 103.636702,152.416353 C103.636702,152.009556 104.038128,152.02055 104.591445,151.965578 C105.925914,151.877622 105.925914,151.151984 105.925914,150.052533 L105.925914,138.673215 L105.936764,138.706198 Z M123.089585,152.999062 C121.607659,153.021477 120.14678,152.641881 118.858338,151.899611 C118.565406,151.679721 118.543707,151.305907 118.543707,150.635242 C118.543707,150.525297 118.543707,149.172972 118.619653,148.205455 C118.619653,148.09551 118.619653,147.721697 118.966832,147.721697 C119.314011,147.721697 119.281463,147.930592 119.33571,148.172472 C119.83478,150.580269 121.646621,152.273424 123.534408,152.273424 C125.217802,152.317088 126.626158,150.987643 126.702418,149.282917 C126.702418,147.182966 124.890577,146.160476 122.981091,145.269921 C120.811221,144.302404 118.717297,143.246931 118.717297,140.388358 C118.717297,137.914594 120.583385,135.75967 123.968382,135.75967 C125.152041,135.760272 126.326657,135.968581 127.440174,136.375362 C127.765654,136.562269 127.765654,136.804148 127.765654,139.178962 C127.765654,139.772666 127.765654,139.981562 127.396776,139.981562 C127.027898,139.981562 127.017049,139.827638 126.756665,138.992056 C126.442033,137.892605 125.953813,136.397351 123.751395,136.397351 C123.019142,136.313297 122.286034,136.547615 121.733874,137.042196 C121.181714,137.536777 120.862218,138.245299 120.854619,138.992056 C120.854619,140.9051 122.395226,141.575766 124.521699,142.466321 C126.00806,143.114997 128.861444,144.434338 128.861444,147.479818 C128.863614,148.990701 128.252053,150.43589 127.170459,151.475801 C126.088865,152.515712 124.632593,153.058662 123.143831,152.977073 M138.484811,150.041538 C138.484811,151.14099 138.484811,151.866627 139.808431,151.954583 C140.372598,151.954583 140.741476,152.009556 140.741476,152.405358 C140.741476,152.801161 140.394296,152.812155 140.188159,152.812155 C139.309361,152.812155 137.931494,152.70221 137.052697,152.70221 C136.597024,152.70221 134.438004,152.812155 133.938934,152.812155 C133.721947,152.812155 133.374768,152.812155 133.374768,152.405358 C133.374768,151.998561 133.754495,152.009556 134.307812,151.954583 C135.642281,151.866627 135.642281,151.14099 135.642281,150.096511 L135.642281,137.562769 C135.642281,136.859121 135.425294,136.859121 134.893676,136.859121 C133.298822,136.859121 131.541228,136.859121 130.185059,139.420841 C129.946373,139.849627 129.816181,139.959572 129.577495,139.959572 C129.385754,139.959572 129.230316,139.802055 129.230316,139.607748 C129.245077,139.463105 129.270462,139.319779 129.306262,139.178962 L130.391197,135.374862 C130.467142,135.056021 130.543087,134.891103 130.781773,134.891103 C131.020459,134.891103 131.085555,135.023037 131.107254,135.275911 C131.237446,136.001549 131.714817,136.023538 132.300682,136.023538 L140.83912,136.023538 C143.573156,136.023538 143.714197,135.671713 143.898636,135.187955 C143.974582,134.979059 144.050527,134.814142 144.267514,134.814142 C144.484501,134.814142 144.636392,135.242928 144.636392,135.913593 L144.462802,139.211946 C144.462802,139.750677 144.376007,140.069518 144.028828,140.069518 C143.898636,140.069518 143.714197,140.069518 143.605704,139.486809 C143.150031,136.892104 141.848109,136.892104 140.123063,136.892104 C138.604154,136.892104 138.473962,136.892104 138.473962,137.782659 L138.473962,150.074522 L138.484811,150.041538 Z M148.455363,138.66222 C148.455363,137.562769 148.455363,136.837132 147.120893,136.749175 C146.535028,136.749175 146.16615,136.694203 146.16615,136.298401 C146.16615,135.902598 146.513329,135.913562 146.697768,135.913562 C146.916662,135.949018 147.137913,135.967396 147.359578,135.968565 C147.945443,135.968565 149.084625,136.023538 151.352139,136.023538 L152.621513,136.023538 C155.366398,136.023538 156.722567,136.023538 157.438624,135.968565 C157.707043,135.965414 157.975078,135.947061 158.241476,135.913562 C158.556107,135.913562 158.556107,136.133483 158.556107,136.749175 L158.556107,139.233935 C158.556107,139.365869 158.556107,139.68471 158.295722,139.68471 C158.035338,139.68471 157.948543,139.585759 157.460322,138.585259 C157.145691,137.88161 156.516429,136.859121 152.740856,136.859121 C151.395536,136.859121 151.297892,137.046027 151.297892,138.398352 L151.297892,142.301403 C151.297892,143.16997 151.297892,143.400854 152.8385,143.400854 C155.789523,143.400854 156.028208,142.807151 156.516429,141.388859 C156.646621,141.037034 156.776813,140.982062 156.907006,140.982062 C157.037198,140.982062 157.199938,141.059024 157.199938,141.355875 C157.199938,141.652727 157.015499,144.5113 157.015499,145.105003 C157.015499,145.29191 157.091445,146.204454 157.091445,146.446334 C157.091445,146.688213 157.091445,146.985065 156.776813,146.985065 C156.462182,146.985065 156.397086,146.85313 156.266894,146.336388 C155.713577,144.269421 154.964972,144.236437 152.784253,144.236437 C151.514879,144.236437 151.297892,144.236437 151.297892,145.050031 L151.297892,149.67872 C151.297892,151.602759 151.851209,151.877622 154.086175,151.877622 C155.769371,152.092602 157.39236,151.162987 158.078735,149.590764 C158.556107,148.645236 158.610353,148.491313 158.849039,148.491313 C159.087725,148.491313 159.16367,148.744186 159.16367,148.898109 C159.16367,149.249934 158.870738,150.976072 158.794792,151.976572 C158.794792,152.48232 158.50186,152.779172 157.709857,152.779172 C156.353689,152.779172 154.455053,152.779172 152.946993,152.724199 L150.028518,152.669226 L149.703038,152.669226 C148.618103,152.669226 147.956293,152.669226 147.533168,152.724199 C147.110043,152.779172 146.903906,152.779172 146.708617,152.779172 C146.513329,152.779172 146.155301,152.779172 146.155301,152.372375 C146.155301,151.965578 146.556727,151.976572 147.110043,151.9216 C148.444513,151.833644 148.444513,151.108006 148.444513,150.008555 L148.444513,138.629237 L148.455363,138.66222 Z M163.286423,138.66222 C163.286423,137.562769 163.286423,136.826137 161.984501,136.749175 C161.398636,136.749175 161.018909,136.694203 161.018909,136.32039 C161.018909,135.946576 161.138252,135.935582 162.0062,135.935582 C162.277433,135.935582 163.579355,136.045527 163.893986,136.045527 C164.620893,136.045527 168.157781,135.935582 168.949783,135.935582 C173.6584,135.935582 174.059826,139.233935 174.059826,140.168468 C174.039675,142.251407 172.462204,143.978442 170.414445,144.159475 C170.761624,144.379366 171.076255,144.533289 171.694668,145.665723 L174.265964,150.305407 C174.797582,151.250935 175.16646,151.9216 175.915065,152.031545 C176.66367,152.14149 177,152.163479 177,152.515303 C177,152.867128 176.728766,152.834144 176.544327,152.834144 C176.359888,152.834144 174.472102,152.724199 174.070676,152.724199 C173.853689,152.724199 172.877247,152.834144 172.638562,152.834144 C172.16119,152.834144 172.052697,152.592265 171.759764,152.031545 L168.50496,145.885614 C167.919095,144.720195 167.788903,144.621245 166.595474,144.621245 C166.139802,144.621245 166.085555,144.775168 166.085555,145.236937 L166.085555,150.085517 C166.085555,151.184968 166.085555,151.943589 167.420025,152.031545 C168.00589,152.031545 168.374768,152.031545 168.374768,152.48232 C168.374768,152.933095 168.027588,152.834144 167.810601,152.834144 C167.311531,152.834144 164.729386,152.724199 164.620893,152.724199 C164.176069,152.724199 162.017049,152.834144 161.539678,152.834144 C161.33354,152.834144 160.975511,152.834144 160.975511,152.460331 C160.975511,152.086517 161.376937,152.053534 161.941104,152.031545 C163.243025,151.9216 163.243025,151.217951 163.243025,150.085517 L163.243025,138.66222 L163.286423,138.66222 Z M166.107254,142.82914 C166.107254,143.774668 166.107254,143.82964 167.441723,143.82964 C168.396466,143.82964 171.032858,143.82964 171.032858,140.454325 C171.111432,139.434626 170.755036,138.429688 170.053908,137.693954 C169.35278,136.95822 168.374143,136.562231 167.365778,136.606247 C166.139802,136.606247 166.107254,137.254923 166.107254,138.299401 L166.107254,142.82914 L166.107254,142.82914 Z" id="logo-forrester"></path>
                </g>
            </g>
        </g>
    </g>
</svg>