<svg width="64" height="64" viewBox="0 0 64 64" fill="none" xmlns="http://www.w3.org/2000/svg">
<path d="M48.3832 0.566406H38.4971V6.9339H48.3832V0.566406Z" fill="#9E62FF"/>
<path fill-rule="evenodd" clip-rule="evenodd" d="M38.4971 0C38.7884 0 39.0245 0.253572 39.0245 0.56637V32.8219C39.0245 33.1347 38.7884 33.3882 38.4971 33.3882C38.2058 33.3882 37.9697 33.1347 37.9697 32.8219V0.56637C37.9697 0.253572 38.2058 0 38.4971 0Z" fill="#0B0B0B"/>
<path d="M36.3121 18.4633L13.4219 63.9994H57.3479C57.991 63.9998 58.6231 63.8205 59.1822 63.4792C59.7413 63.1379 60.2081 62.6464 60.5369 62.0528C60.8657 61.4593 61.0453 60.7844 61.0577 60.0939C61.0701 59.4033 60.915 58.7212 60.6078 58.1144L40.6704 18.4633C40.4573 18.0423 40.1424 17.6912 39.7589 17.4464C39.3754 17.2015 38.9374 17.0723 38.4912 17.0723C38.0451 17.0723 37.6071 17.2015 37.2236 17.4464C36.8401 17.6912 36.5252 18.0423 36.3121 18.4633Z" fill="#00C5A1"/>
<path d="M16.0195 33.3553L2.49549 58.2542C2.17549 58.8338 2.00453 59.4942 2.00009 60.168C1.99565 60.8418 2.15807 61.5048 2.4704 62.0892C2.78273 62.6736 3.23383 63.1588 3.77782 63.4945C4.32181 63.8303 4.9391 64.0043 5.56651 63.9999H36.7598L20.118 33.3553C19.9111 32.9679 19.6127 32.6458 19.2529 32.422C18.8931 32.1981 18.4845 32.0801 18.0686 32.0801C17.6528 32.0801 17.2444 32.1981 16.8846 32.422C16.5248 32.6458 16.2264 32.9679 16.0195 33.3553Z" fill="#BDEA09"/>
</svg>
